<svg xmlns="http://www.w3.org/2000/svg" viewBox="0 0 240 280" role="img" aria-labelledby="title desc">
  <title id="title">Water drop health mascot</title>
  <desc id="desc">A cheerful blue water drop mascot with two green leaves, a waving hand, and balanced facial features</desc>
  <defs>
    <linearGradient id="dropFill" x1="63" y1="54" x2="181" y2="222" gradientUnits="userSpaceOnUse">
      <stop stop-color="#C7EBFF"/>
      <stop offset="1" stop-color="#8ED4F2"/>
    </linearGradient>
    <linearGradient id="leafFill" x1="0" y1="0" x2="1" y2="1">
      <stop stop-color="#D4E99D"/>
      <stop offset="1" stop-color="#9BCB8D"/>
    </linearGradient>
  </defs>

  <ellipse cx="120" cy="255" rx="82" ry="15" fill="#FFCFB6" opacity=".58"/>
  <path d="M120 54C103 81 62 125 62 176c0 42 25 69 58 69s58-27 58-69c0-51-41-95-58-122Z" fill="url(#dropFill)" stroke="#4FAEDF" stroke-width="5" stroke-linejoin="round"/>

  <path d="M118 55C106 35 89 27 68 30c7 22 25 35 49 35" fill="url(#leafFill)" stroke="#4B9855" stroke-width="5" stroke-linecap="round" stroke-linejoin="round"/>
  <path d="M120 55c17-27 39-37 61-32-5 25-25 40-59 39" fill="url(#leafFill)" stroke="#4B9855" stroke-width="5" stroke-linecap="round" stroke-linejoin="round"/>
  <path d="M120 55v22" fill="none" stroke="#4FAEDF" stroke-width="5" stroke-linecap="round"/>

  <path d="M65 177c-17 6-26 20-26 37 0 12 6 22 16 27" fill="none" stroke="#4FAEDF" stroke-width="6" stroke-linecap="round"/>
  <path d="M52 231c-1 8 4 13 10 13 7 0 10-7 7-13M52 231c-7 1-11-4-11-10 0-5 4-8 8-8M52 231c3 4 9 3 12 0" fill="#A9D7F5" stroke="#4FAEDF" stroke-width="5" stroke-linecap="round" stroke-linejoin="round"/>

  <path d="M175 151c18-3 29-17 31-32" fill="none" stroke="#4FAEDF" stroke-width="6" stroke-linecap="round"/>
  <circle cx="206" cy="119" r="8" fill="#A9D7F5" stroke="#4FAEDF" stroke-width="5"/>
  <path d="M201 116c-7-8-9-15-6-19 3-3 7 0 8 5l2 8M205 113c-3-11-1-19 3-21 4-1 6 4 5 9l-1 10M210 114c2-10 6-16 10-15 4 2 3 7 0 12l-4 7M213 118c7-6 14-7 17-3 2 4-2 7-8 9l-8 2" fill="none" stroke="#4FAEDF" stroke-width="5" stroke-linecap="round" stroke-linejoin="round"/>

  <path d="M93 157c5-5 11-6 16-3M131 154c5-3 11-2 16 3" fill="none" stroke="#142A57" stroke-width="4.5" stroke-linecap="round"/>
  <ellipse cx="104" cy="177" rx="6" ry="10" fill="#142A57"/>
  <ellipse cx="136" cy="177" rx="6" ry="10" fill="#142A57"/>
  <circle cx="106" cy="173" r="1.8" fill="#fff" opacity=".9"/>
  <circle cx="138" cy="173" r="1.8" fill="#fff" opacity=".9"/>
  <path d="M107 193c8 10 18 10 26 0" fill="none" stroke="#142A57" stroke-width="5" stroke-linecap="round"/>
  <ellipse cx="83" cy="191" rx="9" ry="5" fill="#FF9E7A" opacity=".5"/>
  <ellipse cx="157" cy="191" rx="9" ry="5" fill="#FF9E7A" opacity=".5"/>

  <path d="M98 240v19c0 5-5 8-12 8h-7c-4 0-6-4-3-7l12-8v-12Z" fill="#A9D7F5" stroke="#4FAEDF" stroke-width="5" stroke-linejoin="round"/>
  <path d="M142 240v19c0 5 5 8 12 8h7c4 0 6-4 3-7l-12-8v-12Z" fill="#A9D7F5" stroke="#4FAEDF" stroke-width="5" stroke-linejoin="round"/>
</svg>
