<svg xmlns="http://www.w3.org/2000/svg" viewBox="0 0 96 96" role="img" aria-labelledby="title">
  <title id="title">Sleep moon icon</title>
  <path d="M61 18C43 22 32 37 35 55c3 17 20 29 37 25 7-2 13-6 17-12-20 5-37-10-37-30 0-7 3-14 9-20Z" fill="#EAF6FF" stroke="#142A57" stroke-width="5" stroke-linecap="round" stroke-linejoin="round"/>
  <path d="m72 27 2 5 5 2-5 2-2 5-2-5-5-2 5-2 2-5ZM76 48l1.5 3.5L81 53l-3.5 1.5L76 58l-1.5-3.5L71 53l3.5-1.5L76 48Z" fill="#FFD66B" stroke="#142A57" stroke-width="2.5" stroke-linejoin="round"/>
</svg>